<svg width="436" height="59" viewBox="0 0 436 59" fill="none" xmlns="http://www.w3.org/2000/svg">
<path d="M100.88 25.9307V31.6436H82.3252V25.9307H100.88ZM84.498 11.4531V47H77.1738V11.4531H84.498ZM106.104 11.4531V47H98.8047V11.4531H106.104ZM136.329 41.2871V47H117.408V41.2871H136.329ZM119.801 11.4531V47H112.477V11.4531H119.801ZM133.863 25.9307V31.4971H117.408V25.9307H133.863ZM136.305 11.4531V17.1904H117.408V11.4531H136.305ZM155.055 17.5322L145.387 47H137.599L150.807 11.4531H155.763L155.055 17.5322ZM163.087 47L153.395 17.5322L152.613 11.4531H157.618L170.899 47H163.087ZM162.647 33.7676V39.5049H143.873V33.7676H162.647ZM185.108 47H177.369L177.418 41.2871H185.108C187.029 41.2871 188.648 40.8558 189.967 39.9932C191.285 39.1143 192.278 37.8366 192.945 36.1602C193.629 34.4837 193.971 32.4574 193.971 30.0811V28.3477C193.971 26.5247 193.775 24.9215 193.385 23.5381C193.01 22.1546 192.449 20.9909 191.7 20.0469C190.951 19.1029 190.032 18.3949 188.941 17.9229C187.851 17.4346 186.598 17.1904 185.182 17.1904H177.223V11.4531H185.182C187.558 11.4531 189.731 11.86 191.7 12.6738C193.686 13.4714 195.403 14.6188 196.852 16.1162C198.3 17.6136 199.415 19.404 200.196 21.4873C200.994 23.5544 201.393 25.8574 201.393 28.3965V30.0811C201.393 32.6038 200.994 34.9069 200.196 36.9902C199.415 39.0736 198.3 40.8639 196.852 42.3613C195.419 43.8424 193.702 44.9899 191.7 45.8037C189.715 46.6012 187.517 47 185.108 47ZM181.52 11.4531V47H174.195V11.4531H181.52ZM233.741 11.4531V47H226.441V11.4531H233.741ZM244.679 11.4531V17.1904H215.675V11.4531H244.679ZM248.854 11.4531H262.11C264.828 11.4531 267.164 11.86 269.117 12.6738C271.087 13.4876 272.6 14.6921 273.658 16.2871C274.716 17.8822 275.245 19.8434 275.245 22.1709C275.245 24.0752 274.92 25.7109 274.269 27.0781C273.634 28.429 272.73 29.5602 271.559 30.4717C270.403 31.3669 269.044 32.083 267.481 32.6201L265.162 33.8408H253.639L253.59 28.1279H262.159C263.445 28.1279 264.511 27.9001 265.357 27.4443C266.204 26.9886 266.839 26.3538 267.262 25.54C267.701 24.7262 267.921 23.7822 267.921 22.708C267.921 21.5687 267.709 20.584 267.286 19.7539C266.863 18.9238 266.22 18.2891 265.357 17.8496C264.495 17.4102 263.412 17.1904 262.11 17.1904H256.178V47H248.854V11.4531ZM268.727 47L260.621 31.1553L268.36 31.1064L276.563 46.6582V47H268.727ZM295.338 17.5322L285.67 47H277.882L291.09 11.4531H296.046L295.338 17.5322ZM303.37 47L293.678 17.5322L292.896 11.4531H297.901L311.183 47H303.37ZM302.931 33.7676V39.5049H284.156V33.7676H302.931ZM334.645 35.208H341.944C341.798 37.6006 341.139 39.7246 339.967 41.5801C338.811 43.4355 337.192 44.8841 335.108 45.9258C333.041 46.9674 330.551 47.4883 327.638 47.4883C325.359 47.4883 323.316 47.0977 321.51 46.3164C319.703 45.5189 318.157 44.3796 316.871 42.8984C315.602 41.4173 314.633 39.627 313.966 37.5273C313.299 35.4277 312.965 33.0758 312.965 30.4717V28.0059C312.965 25.4017 313.307 23.0498 313.99 20.9502C314.69 18.8343 315.683 17.0358 316.969 15.5547C318.271 14.0736 319.825 12.9342 321.632 12.1367C323.438 11.3392 325.457 10.9404 327.687 10.9404C330.649 10.9404 333.147 11.4775 335.182 12.5518C337.232 13.626 338.819 15.1071 339.942 16.9951C341.082 18.8831 341.765 21.0316 341.993 23.4404H334.669C334.588 22.0081 334.303 20.7956 333.814 19.8027C333.326 18.7936 332.586 18.0368 331.593 17.5322C330.616 17.0114 329.314 16.751 327.687 16.751C326.466 16.751 325.4 16.9788 324.488 17.4346C323.577 17.8903 322.812 18.582 322.193 19.5098C321.575 20.4375 321.111 21.6094 320.802 23.0254C320.509 24.4251 320.362 26.069 320.362 27.957V30.4717C320.362 32.3109 320.501 33.9303 320.777 35.3301C321.054 36.7135 321.477 37.8854 322.047 38.8457C322.633 39.7897 323.382 40.5059 324.293 40.9941C325.221 41.4661 326.336 41.7021 327.638 41.7021C329.168 41.7021 330.429 41.458 331.422 40.9697C332.415 40.4814 333.172 39.7572 333.692 38.7969C334.229 37.8366 334.547 36.6403 334.645 35.208ZM354.078 11.4531V47H346.754V11.4531H354.078ZM375.367 11.4531L361.28 29.0068L353.15 37.7471L351.832 30.8135L357.325 23.2939L366.383 11.4531H375.367ZM367.042 47L356.568 30.5693L361.988 26.0283L375.709 47H367.042ZM402.394 41.2871V47H383.473V41.2871H402.394ZM385.865 11.4531V47H378.541V11.4531H385.865ZM399.928 25.9307V31.4971H383.473V25.9307H399.928ZM402.369 11.4531V17.1904H383.473V11.4531H402.369ZM406.666 11.4531H419.923C422.641 11.4531 424.977 11.86 426.93 12.6738C428.899 13.4876 430.413 14.6921 431.471 16.2871C432.529 17.8822 433.058 19.8434 433.058 22.1709C433.058 24.0752 432.732 25.7109 432.081 27.0781C431.446 28.429 430.543 29.5602 429.371 30.4717C428.215 31.3669 426.856 32.083 425.294 32.6201L422.975 33.8408H411.451L411.402 28.1279H419.972C421.257 28.1279 422.324 27.9001 423.17 27.4443C424.016 26.9886 424.651 26.3538 425.074 25.54C425.514 24.7262 425.733 23.7822 425.733 22.708C425.733 21.5687 425.522 20.584 425.099 19.7539C424.675 18.9238 424.033 18.2891 423.17 17.8496C422.307 17.4102 421.225 17.1904 419.923 17.1904H413.99V47H406.666V11.4531ZM426.539 47L418.434 31.1553L426.173 31.1064L434.376 46.6582V47H426.539Z" fill="white"/>
<rect y="11" width="14.1818" height="14.1818" rx="1" fill="white"/>
<rect y="32.8179" width="14.1818" height="14.1818" rx="1" fill="white"/>
<rect x="22.9091" y="32.8179" width="14.1818" height="14.1818" rx="1" fill="white"/>
<rect x="46.9091" y="32.8179" width="14.1818" height="14.1818" rx="1" fill="white"/>
<rect x="22.9091" y="11" width="14.1818" height="14.1818" rx="1" fill="white"/>
<rect x="46.9091" y="11" width="14.1818" height="14.1818" rx="1" fill="white"/>
</svg>
